<svg width="800" height="600" viewBox="0 0 800 600" fill="none" xmlns="http://www.w3.org/2000/svg">
  <defs>
    <linearGradient id="bg" x1="0" y1="0" x2="1" y2="1">
      <stop offset="0%" stop-color="#A5B4FC" stop-opacity="0.8" />
      <stop offset="100%" stop-color="#38BDF8" stop-opacity="0.6" />
    </linearGradient>
    <linearGradient id="ring" x1="0" y1="0" x2="1" y2="1">
      <stop offset="0%" stop-color="#FFFFFF" stop-opacity="0.9" />
      <stop offset="100%" stop-color="#4338CA" stop-opacity="0" />
    </linearGradient>
  </defs>
  <rect width="800" height="600" rx="32" fill="url(#bg)" />
  <circle cx="520" cy="220" r="180" fill="url(#ring)" />
  <g transform="translate(200 150)">
    <rect x="0" y="180" width="420" height="240" rx="24" fill="#1E293B" />
    <rect x="40" y="220" width="340" height="160" rx="16" fill="#0F172A" />
    <rect x="70" y="250" width="280" height="100" rx="12" fill="#334155" />
    <line x1="90" y1="280" x2="340" y2="280" stroke="#94A3B8" stroke-width="8" stroke-linecap="round" />
    <line x1="90" y1="310" x2="340" y2="310" stroke="#94A3B8" stroke-width="8" stroke-linecap="round" />
    <line x1="90" y1="340" x2="340" y2="340" stroke="#94A3B8" stroke-width="8" stroke-linecap="round" />
    <circle cx="220" cy="170" r="60" fill="#FEE2E2" />
    <circle cx="220" cy="170" r="38" fill="#F472B6" />
    <rect x="180" y="520" width="140" height="20" rx="10" fill="#94A3B8" />
    <rect x="160" y="500" width="180" height="40" rx="20" fill="#CBD5E1" />
  </g>
</svg>
